<?xml version="1.0" encoding="UTF-8"?>
<!DOCTYPE svg PUBLIC "-//W3C//DTD SVG 1.1//EN" "http://www.w3.org/Graphics/SVG/1.1/DTD/svg11.dtd">
<svg xmlns="http://www.w3.org/2000/svg" version="1.1" width="650px" height="366px" style="shape-rendering:geometricPrecision; text-rendering:geometricPrecision; image-rendering:optimizeQuality; fill-rule:evenodd; clip-rule:evenodd" xmlns:xlink="http://www.w3.org/1999/xlink">
<g><path style="opacity:0.997" fill="#007cfe" d="M 294.5,271.5 C 298.833,271.5 303.167,271.5 307.5,271.5C 304.569,272.446 299.569,272.946 292.5,273C 294.248,273.08 295.915,273.913 297.5,275.5C 299.702,274.22 301.868,274.22 304,275.5C 305.299,274.02 306.966,273.354 309,273.5C 311.566,274.042 313.9,274.376 316,274.5C 317.001,271.784 318.668,271.118 321,272.5C 322.261,272.241 323.261,271.574 324,270.5C 326.286,271.253 328.786,271.253 331.5,270.5C 331.296,269.471 331.796,268.471 333,267.5C 334.525,267.112 336.192,267.112 338,267.5C 340.01,266.553 342.01,264.886 344,262.5C 345.164,262.165 346.497,262.165 348,262.5C 353.96,255.411 361.127,252.244 369.5,253C 369.167,253.333 368.833,253.667 368.5,254C 377.053,258.153 378.72,264.32 373.5,272.5C 356.584,285.977 337.918,293.977 317.5,296.5C 315.084,296.875 312.75,297.541 310.5,298.5C 272.788,299.391 240.954,286.725 215,260.5C 212.05,255.882 208.716,251.548 205,247.5C 203.253,243.104 200.753,239.27 197.5,236C 197.5,234.667 197.5,233.333 197.5,232C 196.167,230.667 194.833,229.333 193.5,228C 194.475,225.588 193.808,223.588 191.5,222C 191.957,221.586 192.291,221.086 192.5,220.5C 190.985,218.453 190.151,216.119 190,213.5C 189.346,214.696 188.846,214.696 188.5,213.5C 189.97,211.518 189.636,209.852 187.5,208.5C 187.987,207.554 188.32,206.554 188.5,205.5C 186.966,201.662 186.132,197.662 186,193.5C 185.066,194.858 184.232,196.192 183.5,197.5C 182.933,195.97 182.267,194.47 181.5,193C 182.206,183.865 182.873,174.698 183.5,165.5C 184.302,166.952 184.802,168.618 185,170.5C 190.199,134.016 207.699,105.183 237.5,84C 241.937,81.8854 246.103,79.3854 250,76.5C 251.333,76.5 252.667,76.5 254,76.5C 256.519,74.653 259.186,72.9863 262,71.5C 263.147,72.4581 264.147,72.1247 265,70.5C 266.827,71.6616 268.494,71.3282 270,69.5C 272.071,70.6673 273.571,70.0006 274.5,67.5C 277.105,69.058 279.438,68.7247 281.5,66.5C 282.446,66.9867 283.446,67.3201 284.5,67.5C 286.239,66.6002 288.072,65.9335 290,65.5C 297.29,66.6897 304.29,66.6897 311,65.5C 314.292,67.5881 317.792,67.9214 321.5,66.5C 323.373,66.4823 323.706,66.9823 322.5,68C 326.645,68.4209 330.478,69.5876 334,71.5C 336.211,71.337 338.378,71.337 340.5,71.5C 342.149,72.706 343.649,74.0394 345,75.5C 345.333,75.1667 345.667,74.8333 346,74.5C 355.151,79.3181 363.984,84.4848 372.5,90C 372.167,90.3333 371.833,90.6667 371.5,91C 373.959,91.724 374.959,93.0573 374.5,95C 376.487,97.4699 376.987,100.303 376,103.5C 372.482,110.082 366.982,112.249 359.5,110C 348.895,101.944 337.895,96.1103 326.5,92.5C 325.914,92.7093 325.414,93.0426 325,93.5C 321.485,91.9566 317.818,90.6233 314,89.5C 312.538,89.9938 311.038,90.3272 309.5,90.5C 305.41,89.7082 301.577,89.0415 298,88.5C 294.789,90.836 291.289,91.1693 287.5,89.5C 284.177,90.5717 281.01,91.905 278,93.5C 276.249,92.1912 274.749,92.5245 273.5,94.5C 272.833,94.1667 272.167,93.8333 271.5,93.5C 269.54,94.723 267.707,96.0564 266,97.5C 264.984,96.3659 264.317,96.6992 264,98.5C 262.605,97.1854 261.605,97.5188 261,99.5C 260.667,99.1667 260.333,98.8333 260,98.5C 238.347,110.742 223.18,127.242 214.5,148C 214.957,148.414 215.291,148.914 215.5,149.5C 213.467,153.021 211.8,156.688 210.5,160.5C 210.073,164.26 210.073,168.093 210.5,172C 209.912,173.92 208.912,175.587 207.5,177C 208.288,180.076 208.788,183.242 209,186.5C 211.096,187.715 210.929,188.549 208.5,189C 210.723,190.751 211.057,192.918 209.5,195.5C 209.722,197.055 210.389,198.389 211.5,199.5C 211.37,201.423 211.036,203.256 210.5,205C 211.167,205.333 211.833,205.667 212.5,206C 211.43,208.864 212.43,211.531 215.5,214C 215.888,215.525 215.888,217.192 215.5,219C 227.745,243.775 247.578,261.275 275,271.5C 277.558,271.282 280.058,271.282 282.5,271.5C 284.5,272.5 286.5,273.5 288.5,274.5C 290.302,273.014 292.302,272.014 294.5,271.5 Z"/></g>
<g><path style="opacity:0.846" fill="#0e7cfa" d="M 294.5,271.5 C 292.302,272.014 290.302,273.014 288.5,274.5C 286.5,273.5 284.5,272.5 282.5,271.5C 280.058,271.282 277.558,271.282 275,271.5C 247.578,261.275 227.745,243.775 215.5,219C 215.888,217.192 215.888,215.525 215.5,214C 212.43,211.531 211.43,208.864 212.5,206C 211.833,205.667 211.167,205.333 210.5,205C 211.036,203.256 211.37,201.423 211.5,199.5C 210.389,198.389 209.722,197.055 209.5,195.5C 211.057,192.918 210.723,190.751 208.5,189C 210.929,188.549 211.096,187.715 209,186.5C 208.788,183.242 208.288,180.076 207.5,177C 208.912,175.587 209.912,173.92 210.5,172C 210.073,168.093 210.073,164.26 210.5,160.5C 211.8,156.688 213.467,153.021 215.5,149.5C 215.291,148.914 214.957,148.414 214.5,148C 223.18,127.242 238.347,110.742 260,98.5C 260.333,98.8333 260.667,99.1667 261,99.5C 261.605,97.5188 262.605,97.1854 264,98.5C 264.317,96.6992 264.984,96.3659 266,97.5C 267.707,96.0564 269.54,94.723 271.5,93.5C 272.167,93.8333 272.833,94.1667 273.5,94.5C 274.749,92.5245 276.249,92.1912 278,93.5C 281.01,91.905 284.177,90.5717 287.5,89.5C 291.289,91.1693 294.789,90.836 298,88.5C 301.577,89.0415 305.41,89.7082 309.5,90.5C 311.038,90.3272 312.538,89.9938 314,89.5C 317.818,90.6233 321.485,91.9566 325,93.5C 325.414,93.0426 325.914,92.7093 326.5,92.5C 337.895,96.1103 348.895,101.944 359.5,110C 366.982,112.249 372.482,110.082 376,103.5C 376.987,100.303 376.487,97.4699 374.5,95C 374.959,93.0573 373.959,91.724 371.5,91C 371.833,90.6667 372.167,90.3333 372.5,90C 363.984,84.4848 355.151,79.3181 346,74.5C 345.667,74.8333 345.333,75.1667 345,75.5C 343.649,74.0394 342.149,72.706 340.5,71.5C 338.378,71.337 336.211,71.337 334,71.5C 330.478,69.5876 326.645,68.4209 322.5,68C 323.706,66.9823 323.373,66.4823 321.5,66.5C 317.792,67.9214 314.292,67.5881 311,65.5C 304.29,66.6897 297.29,66.6897 290,65.5C 288.072,65.9335 286.239,66.6002 284.5,67.5C 283.446,67.3201 282.446,66.9867 281.5,66.5C 279.438,68.7247 277.105,69.058 274.5,67.5C 273.571,70.0006 272.071,70.6673 270,69.5C 268.494,71.3282 266.827,71.6616 265,70.5C 264.147,72.1247 263.147,72.4581 262,71.5C 259.186,72.9863 256.519,74.653 254,76.5C 252.667,76.5 251.333,76.5 250,76.5C 246.103,79.3854 241.937,81.8854 237.5,84C 207.699,105.183 190.199,134.016 185,170.5C 184.802,168.618 184.302,166.952 183.5,165.5C 188.21,133.607 203.544,107.274 229.5,86.5C 274.042,56.2072 319.709,54.7072 366.5,82C 369.873,84.6775 373.206,87.3442 376.5,90C 382.359,104.445 377.526,112.612 362,114.5C 350.512,106.006 338.012,99.5064 324.5,95C 279.01,85.7295 244.51,101.23 221,141.5C 205.058,177.568 209.392,210.901 234,241.5C 250.606,258.858 270.772,268.858 294.5,271.5 Z"/></g>
<g><path style="opacity:1" fill="#6db7f7" d="M 461.5,161.5 C 461.532,166.391 462.199,171.057 463.5,175.5C 463.5,179.5 463.5,183.5 463.5,187.5C 462.111,192.269 461.444,197.269 461.5,202.5C 459.629,222.944 453.463,241.944 443,259.5C 440.874,261.377 438.374,262.377 435.5,262.5C 433.5,262.5 431.5,262.5 429.5,262.5C 428.504,262.414 427.671,262.748 427,263.5C 425.738,261.697 424.071,260.364 422,259.5C 419.146,256.61 417.646,253.11 417.5,249C 421.801,237.929 425.801,226.763 429.5,215.5C 430.612,213.401 431.279,211.067 431.5,208.5C 431.5,207.5 431.5,206.5 431.5,205.5C 432.338,205.158 432.672,204.492 432.5,203.5C 433.307,192.003 433.64,180.67 433.5,169.5C 431.116,151.29 425.949,133.956 418,117.5C 417.319,106.847 422.319,101.18 433,100.5C 438.853,100.598 443.186,103.264 446,108.5C 454.631,125.157 459.798,142.824 461.5,161.5 Z"/></g>
<g><path style="opacity:0.997" fill="#032eb9" d="M 260.5,159.5 C 259.599,160.29 258.932,161.29 258.5,162.5C 250.526,188.086 257.526,208.253 279.5,223C 289.697,227.885 300.364,229.218 311.5,227C 316.411,225.644 321.077,223.81 325.5,221.5C 326.833,221.5 327.5,220.833 327.5,219.5C 330.915,216.481 334.249,213.481 337.5,210.5C 338.906,210.027 339.573,209.027 339.5,207.5C 340.167,206.167 340.833,204.833 341.5,203.5C 342.906,203.027 343.573,202.027 343.5,200.5C 343.33,199.178 343.663,198.011 344.5,197C 333.167,196.667 321.833,196.333 310.5,196C 306.654,194.651 303.987,192.151 302.5,188.5C 302.011,187.005 301.345,185.671 300.5,184.5C 299.258,182.611 299.258,180.611 300.5,178.5C 301.674,177.486 302.34,176.153 302.5,174.5C 303.788,170.718 306.455,168.551 310.5,168C 329.5,167.333 348.5,167.333 367.5,168C 372.423,170.327 375.59,174.16 377,179.5C 376.264,212.144 361.431,235.977 332.5,251C 329.568,252.145 326.568,252.978 323.5,253.5C 321.597,253.796 319.93,254.463 318.5,255.5C 295.127,260.762 274.127,256.095 255.5,241.5C 255.167,240.5 254.5,239.833 253.5,239.5C 249.908,237.414 246.741,234.747 244,231.5C 219.684,198.797 219.351,165.797 243,132.5C 269.449,105.71 300.282,99.543 335.5,114C 344.925,117.692 349.092,124.526 348,134.5C 344.779,140.609 339.779,144.276 333,145.5C 327.631,142.902 322.131,140.402 316.5,138C 292.85,131.744 274.184,138.91 260.5,159.5 Z"/></g>
<g><path style="opacity:1" fill="#6db7f7" d="M 389.5,238.5 C 389.158,237.662 388.492,237.328 387.5,237.5C 383.318,234.665 380.985,230.665 380.5,225.5C 384.726,214.488 387.726,203.155 389.5,191.5C 390.468,189.393 390.802,187.059 390.5,184.5C 390.28,179.566 389.613,174.733 388.5,170C 389.056,169.617 389.389,169.117 389.5,168.5C 389.435,165.572 388.768,162.905 387.5,160.5C 385.698,153.762 383.698,147.095 381.5,140.5C 381.5,138.833 381.5,137.167 381.5,135.5C 381.402,133.447 382.069,131.78 383.5,130.5C 384.906,130.027 385.573,129.027 385.5,127.5C 392.222,122.18 399.056,122.18 406,127.5C 418.399,149.549 422.733,173.216 419,198.5C 417.223,210.273 413.889,221.606 409,232.5C 403.697,239.205 397.197,241.205 389.5,238.5 Z"/></g>
<g><path style="opacity:0.129" fill="#2773e5" d="M 385.5,127.5 C 385.573,129.027 384.906,130.027 383.5,130.5C 383.427,128.973 384.094,127.973 385.5,127.5 Z"/></g>
<g><path style="opacity:0.031" fill="#2e76e4" d="M 381.5,135.5 C 381.5,137.167 381.5,138.833 381.5,140.5C 380.711,140.217 380.044,139.717 379.5,139C 380.085,137.698 380.751,136.531 381.5,135.5 Z"/></g>
<g><path style="opacity:0.031" fill="#2a74e4" d="M 260.5,159.5 C 260.715,161.179 260.048,162.179 258.5,162.5C 258.932,161.29 259.599,160.29 260.5,159.5 Z"/></g>
<g><path style="opacity:0.031" fill="#2c77e4" d="M 387.5,160.5 C 388.768,162.905 389.435,165.572 389.5,168.5C 387.96,166.162 387.294,163.495 387.5,160.5 Z"/></g>
<g><path style="opacity:0.031" fill="#2c77e5" d="M 461.5,161.5 C 463.104,165.9 463.771,170.566 463.5,175.5C 462.199,171.057 461.532,166.391 461.5,161.5 Z"/></g>
<g><path style="opacity:0.129" fill="#2976e6" d="M 302.5,174.5 C 302.34,176.153 301.674,177.486 300.5,178.5C 300.229,176.62 300.896,175.287 302.5,174.5 Z"/></g>
<g><path style="opacity:0.031" fill="#2975e5" d="M 300.5,184.5 C 301.345,185.671 302.011,187.005 302.5,188.5C 300.824,187.817 300.157,186.483 300.5,184.5 Z"/></g>
<g><path style="opacity:0.075" fill="#2d79e5" d="M 390.5,184.5 C 390.802,187.059 390.468,189.393 389.5,191.5C 389.062,191.565 388.728,191.399 388.5,191C 389.117,188.723 389.784,186.556 390.5,184.5 Z"/></g>
<g><path style="opacity:0.031" fill="#2b76e5" d="M 463.5,187.5 C 463.698,192.75 463.031,197.75 461.5,202.5C 461.444,197.269 462.111,192.269 463.5,187.5 Z"/></g>
<g><path style="opacity:0.129" fill="#2a77e6" d="M 343.5,200.5 C 343.573,202.027 342.906,203.027 341.5,203.5C 341.427,201.973 342.094,200.973 343.5,200.5 Z"/></g>
<g><path style="opacity:0.075" fill="#2f79e5" d="M 432.5,203.5 C 432.672,204.492 432.338,205.158 431.5,205.5C 430.561,204.673 430.895,204.006 432.5,203.5 Z"/></g>
<g><path style="opacity:0.129" fill="#2773e5" d="M 339.5,207.5 C 339.573,209.027 338.906,210.027 337.5,210.5C 337.427,208.973 338.094,207.973 339.5,207.5 Z"/></g>
<g><path style="opacity:0.031" fill="#2c77e5" d="M 431.5,208.5 C 431.279,211.067 430.612,213.401 429.5,215.5C 429.171,212.772 429.837,210.438 431.5,208.5 Z"/></g>
<g><path style="opacity:0.298" fill="#217af2" d="M 327.5,219.5 C 327.5,220.833 326.833,221.5 325.5,221.5C 325.833,220.5 326.5,219.833 327.5,219.5 Z"/></g>
<g><path style="opacity:0.129" fill="#2874e5" d="M 387.5,237.5 C 388.492,237.328 389.158,237.662 389.5,238.5C 388.673,239.439 388.006,239.105 387.5,237.5 Z"/></g>
<g><path style="opacity:0.031" fill="#2874e5" d="M 253.5,239.5 C 254.5,239.833 255.167,240.5 255.5,241.5C 254.167,241.5 253.5,240.833 253.5,239.5 Z"/></g>
<g><path style="opacity:0.129" fill="#2976e5" d="M 429.5,262.5 C 431.5,262.5 433.5,262.5 435.5,262.5C 435.217,263.289 434.717,263.956 434,264.5C 432.378,263.901 430.878,263.234 429.5,262.5 Z"/></g>
<g><path style="opacity:0.801" fill="#0f7cfa" d="M 307.5,271.5 C 312.357,270.672 317.357,269.838 322.5,269C 326.346,267.368 330.346,266.034 334.5,265C 343.461,260.519 352.128,255.519 360.5,250C 375.812,249.32 381.646,256.487 378,271.5C 368.45,281.035 357.283,288.201 344.5,293C 323.4,300.62 301.567,302.453 279,298.5C 235.919,289.214 205.919,263.547 189,221.5C 186.845,213.547 185.011,205.547 183.5,197.5C 184.232,196.192 185.066,194.858 186,193.5C 186.132,197.662 186.966,201.662 188.5,205.5C 188.32,206.554 187.987,207.554 187.5,208.5C 189.636,209.852 189.97,211.518 188.5,213.5C 188.846,214.696 189.346,214.696 190,213.5C 190.151,216.119 190.985,218.453 192.5,220.5C 192.291,221.086 191.957,221.586 191.5,222C 193.808,223.588 194.475,225.588 193.5,228C 194.833,229.333 196.167,230.667 197.5,232C 197.5,233.333 197.5,234.667 197.5,236C 200.753,239.27 203.253,243.104 205,247.5C 208.716,251.548 212.05,255.882 215,260.5C 240.954,286.725 272.788,299.391 310.5,298.5C 312.75,297.541 315.084,296.875 317.5,296.5C 337.918,293.977 356.584,285.977 373.5,272.5C 378.72,264.32 377.053,258.153 368.5,254C 368.833,253.667 369.167,253.333 369.5,253C 361.127,252.244 353.96,255.411 348,262.5C 346.497,262.165 345.164,262.165 344,262.5C 342.01,264.886 340.01,266.553 338,267.5C 336.192,267.112 334.525,267.112 333,267.5C 331.796,268.471 331.296,269.471 331.5,270.5C 328.786,271.253 326.286,271.253 324,270.5C 323.261,271.574 322.261,272.241 321,272.5C 318.668,271.118 317.001,271.784 316,274.5C 313.9,274.376 311.566,274.042 309,273.5C 306.966,273.354 305.299,274.02 304,275.5C 301.868,274.22 299.702,274.22 297.5,275.5C 295.915,273.913 294.248,273.08 292.5,273C 299.569,272.946 304.569,272.446 307.5,271.5 Z"/></g>
<g><path style="opacity:0.031" fill="#2d78e4" d="M 323.5,253.5 C 322.365,255.213 320.698,255.88 318.5,255.5C 319.93,254.463 321.597,253.796 323.5,253.5 Z"/></g>
</svg>
